<svg width="30" height="30" fill="none" xmlns="http://www.w3.org/2000/svg"><path fill-rule="evenodd" clip-rule="evenodd" d="M30 14.999c0-2.524-1.696-4.5-4.5-4.5h-4.61l.042-.114.274-.723v-.001l.001-.003.239-.63c.285-.766.493-1.383.661-1.994.255-.923.393-1.755.393-2.535 0-2.208-1.362-3.58-3.378-4.166-.909-.265-1.7-.334-2.622-.334h-.72l-.45.56c-.508.634-1.508 1.776-2.66 3.092-2.125 2.429-4.77 5.451-5.814 6.973A2.998 2.998 0 006 10.5H3a3 3 0 00-3 3V27a3 3 0 003 3h3c1.03 0 1.94-.52 2.48-1.311.455.294.963.54 1.515.737a10.11 10.11 0 003.557.572L24 30c4.133 0 6-6.085 6-15zM11.005 26.601C9.678 26.127 9 25.352 9 24V13.5c0-.36.067-.68.213-1.02.262-.612 2.64-3.326 4.894-5.897a231.723 231.723 0 003.083-3.56 5.25 5.25 0 011.094.19c.86.251 1.216.61 1.216 1.287 0 .475-.096 1.053-.285 1.738a20.83 20.83 0 01-.58 1.743l-.224.59-.001.003-.292.772a12.16 12.16 0 00-.411 1.268c-.374 1.5.001 2.886 1.793 2.886h6c1.037 0 1.5.54 1.5 1.5 0 7.186-1.477 12-3 12H13.445a7.216 7.216 0 01-2.44-.398zm-8.005.4V13.5h3V27H3z" fill="#fff"/></svg>