<svg width="20" height="18" fill="none" xmlns="http://www.w3.org/2000/svg"><path fill-rule="evenodd" clip-rule="evenodd" d="M13.794.667c-1.206 0-1.984.144-2.875.58a5.14 5.14 0 00-.928.583 5.25 5.25 0 00-.89-.556C8.192.824 7.375.667 6.211.667 3.098.667.834 3.248.834 6.6c0 2.532 1.412 4.977 4.04 7.342 1.38 1.241 3.143 2.47 4.405 3.123l.722.374.722-.374c1.262-.654 3.024-1.882 4.404-3.123 2.629-2.365 4.04-4.81 4.04-7.342 0-3.316-2.285-5.92-5.372-5.933zM17.5 6.6c0 1.984-1.178 4.025-3.489 6.103-1.26 1.133-2.879 2.265-4.011 2.859-1.133-.594-2.752-1.726-4.012-2.86C3.678 10.626 2.5 8.585 2.5 6.6c0-2.476 1.57-4.266 3.712-4.266.925 0 1.495.11 2.15.434.388.191.73.444 1.027.76l.613.655.607-.66c.303-.328.65-.587 1.042-.779.637-.311 1.171-.41 2.14-.41C15.907 2.343 17.5 4.158 17.5 6.6z" fill="#fff"/></svg>