<svg width="120" height="120" fill="none" xmlns="http://www.w3.org/2000/svg"><path d="M79.792 57.653L54.874 39.54a3.004 3.004 0 00-4.772 2.424v36.214a2.995 2.995 0 004.772 2.42l24.918-18.097a3.01 3.01 0 001.246-2.424 2.983 2.983 0 00-1.246-2.424z" fill="#fff"/><path d="M60.002.008C26.858.008 0 26.866 0 60.01c0 33.131 26.858 59.982 60.002 59.982C93.138 119.992 120 93.137 120 60.01 120.004 26.866 93.138.008 60.002.008zm0 109.973c-27.601 0-49.979-22.366-49.979-49.971 0-27.593 22.378-49.987 49.979-49.987 27.597 0 49.971 22.39 49.971 49.987.004 27.605-22.374 49.971-49.971 49.971z" fill="#fff"/></svg>