<svg width="161" height="18" fill="none" xmlns="http://www.w3.org/2000/svg"><path d="M6.824 17.336c-1.872 0-3.408-.528-4.608-1.584-1.2-1.056-1.8-2.472-1.8-4.248V.2h3.288v11.04c0 .88.248 1.576.744 2.088.512.512 1.304.768 2.376.768 1.072 0 1.856-.256 2.352-.768.512-.512.768-1.208.768-2.088V.2h3.312v11.304c0 1.776-.6 3.192-1.8 4.248-1.2 1.056-2.744 1.584-4.632 1.584zm12.944-3.504h7.128V17H15.544v-2.64l6.984-10.992h-6.816V.2h11.04v2.616l-6.984 11.016zm19.467-5.544c1.472.848 2.208 2.128 2.208 3.84 0 1.424-.504 2.592-1.512 3.504-1.008.912-2.248 1.368-3.72 1.368h-7.128V.2h6.624c1.44 0 2.648.448 3.624 1.344.992.88 1.488 2.008 1.488 3.384 0 1.392-.528 2.512-1.584 3.36zm-3.528-4.992h-3.312v3.696h3.312c.512 0 .936-.176 1.272-.528.352-.352.528-.792.528-1.32s-.168-.968-.504-1.32c-.336-.352-.768-.528-1.296-.528zm.504 10.608c.56 0 1.024-.184 1.392-.552.368-.384.552-.864.552-1.44 0-.56-.184-1.024-.552-1.392-.368-.384-.832-.576-1.392-.576h-3.816v3.96h3.816zm10.716-.072h7.08V17H43.615V.2h10.272v3.168h-6.96v3.576h6.36v3.12h-6.36v3.768zM69.469 17h-3.816l-6-7.872V17h-3.312V.2h3.312v7.416L65.413.2h3.816l-6.216 8.16L69.47 17z" fill="#62B067"/><path d="M74.419 13.832h6.408V17h-9.72V.2h3.312v13.632zM93.977 17l-1.008-3.024h-6.696L85.265 17H81.69L87.57.2h4.104L97.577 17h-3.6zm-6.648-6.12h4.608l-2.304-6.864-2.304 6.864zM108.424 17l-3.384-5.832h-2.52V17h-3.312V.2h6.72c1.552 0 2.872.544 3.96 1.632 1.088 1.088 1.632 2.4 1.632 3.936 0 1.04-.296 2.008-.888 2.904a5.589 5.589 0 01-2.352 1.992L112 17h-3.576zM102.52 3.296v4.968h3.408c.624 0 1.16-.24 1.608-.72a2.56 2.56 0 00.672-1.776c0-.688-.224-1.272-.672-1.752-.448-.48-.984-.72-1.608-.72h-3.408zm14.784 13.416c-.4.4-.88.6-1.44.6-.56 0-1.04-.2-1.44-.6-.4-.4-.6-.88-.6-1.44 0-.56.2-1.04.6-1.44.4-.4.88-.6 1.44-.6.56 0 1.04.2 1.44.6.4.4.6.88.6 1.44 0 .56-.2 1.04-.6 1.44z" fill="#fff"/><path d="M130.35.2h3.312V17h-2.52l-7.2-10.272V17h-3.312V.2h2.52l7.2 10.248V.2zm9.741 13.632h7.08V17h-10.392V.2h10.272v3.168h-6.96v3.576h6.36v3.12h-6.36v3.768zM160.617.2v3.168h-4.536V17h-3.312V3.368h-4.512V.2h12.36z" fill="#4790D1"/></svg>